<?xml version="1.0" encoding="UTF-8" standalone="no"?>
<svg width="308px" height="9px" viewBox="0 0 308 9" version="1.1" xmlns="http://www.w3.org/2000/svg" xmlns:xlink="http://www.w3.org/1999/xlink">
    <!-- Generator: Sketch 41 (35326) - http://www.bohemiancoding.com/sketch -->
    <title>Divider #2</title>
    <desc>Created with Sketch.</desc>
    <defs></defs>
    <g id="Game-UI" stroke="none" stroke-width="1" fill="none" fill-rule="evenodd">
        <g id="Game-UI-(visual-style)-(extras)" transform="translate(-117.000000, -404.000000)">
            <g id="Augmented-UI" transform="translate(117.000000, 1.000000)">
                <g id="Divider-#2" transform="translate(0.000000, 403.000000)">
                    <path d="M128.311344,4.94597203 C128.311344,3.96499301 129.050029,3.16904895 129.961287,3.16904895 C130.872143,3.16904895 131.611231,3.96499301 131.611231,4.94597203 C131.611231,5.92779021 130.872143,6.72415385 129.961287,6.72415385 C129.050029,6.72415385 128.311344,5.92779021 128.311344,4.94597203 Z M107.756812,5.34751049 C107.756812,5.34751049 116.573443,4.88848951 119.990261,3.16820979 C119.990261,3.16820979 122.414774,4.77394406 123.406675,5.118 C123.406675,5.118 120.981759,6.26429371 120.320894,7.06737063 C120.320894,7.06737063 113.488066,5.46205594 107.756812,5.34751049 Z M127.101709,4.77394406 L125.941265,4.77394406 C124.067539,4.77394406 120.430971,2.13562238 120.430971,2.13562238 C116.723035,4.17897902 100.821567,4.87464336 100.49053,4.88848951 L0.496152217,5.40415388 C0.222371342,5.40415388 100.372792,5.92023776 100.372792,5.92023776 C113.818699,6.15058741 121.092239,7.7559021 121.092239,7.7559021 C122.534931,5.85478322 125.653372,5.43772028 127.158158,5.3621958 C127.435568,6.59618182 128.660123,7.52639161 130.129427,7.52639161 C131.803159,7.52639161 133.160774,6.3200979 133.160774,4.83100699 C133.160774,3.34275524 131.803159,2.13562238 130.129427,2.13562238 C128.476661,2.13562238 127.136385,3.31254545 127.101709,4.77394406 Z" id="Fill-1" fill="#262626"></path>
                    <g id="Group-5" transform="translate(175.767973, 1.720993)" fill="#262626">
                        <path d="M13.0488642,5.34654545 C12.3871935,4.54346853 9.96187396,3.39675524 9.96187396,3.39675524 C10.9541784,3.0526993 13.3786915,1.44738462 13.3786915,1.44738462 C16.7959123,3.16766434 25.6121403,3.62626573 25.6121403,3.62626573 C19.8820961,3.74123077 13.0488642,5.34654545 13.0488642,5.34654545 M3.40806787,5.00332867 C2.496809,5.00332867 1.75812481,4.20654545 1.75812481,3.22472727 C1.75812481,2.24374825 2.496809,1.44822378 3.40806787,1.44822378 C4.31932675,1.44822378 5.05801093,2.24374825 5.05801093,3.22472727 C5.05801093,4.20654545 4.31932675,5.00332867 3.40806787,5.00332867 M32.878825,3.16766434 C32.5477881,3.1533986 16.6463207,2.45773427 12.9379809,0.414797203 C12.9379809,0.414797203 9.30181609,3.0526993 7.42849365,3.0526993 L6.26764661,3.0526993 C6.23216396,1.59172028 4.89188763,0.414797203 3.2395253,0.414797203 C1.56579274,0.414797203 0.208984723,1.62193007 0.208984723,3.11018182 C0.208984723,4.59927273 1.56579274,5.80556643 3.2395253,5.80556643 C4.70963586,5.80556643 5.93419037,4.87535664 6.21160016,3.64137063 C7.71558051,3.71647552 10.8344245,4.13353846 12.2771166,6.03507692 C12.2771166,6.03507692 19.550656,4.42934266 32.9969661,4.20025175 L131.678134,3.68290909 C131.950302,3.68290909 32.878825,3.16766434 32.878825,3.16766434 Z" id="Fill-3"></path>
                    </g>
                    <path d="M142.823908,4.32793007 C145.033509,6.02765035 149.426503,4.88429371 152.942914,3.28233566 C156.469405,1.67702098 159.776146,0.530307692 159.776146,0.530307692 C157.792343,-0.157804196 153.225565,2.52834965 148.535001,3.97044755 C144.44482,5.22876923 142.997289,4.43786014 142.823908,4.32793007" id="Fill-6" fill="#262626"></path>
                    <path d="M166.718971,5.14661538 C166.139958,4.5440979 164.260991,3.90591608 160.436929,5.23262937 C157.461629,6.26353846 153.16339,8.07067133 153.16339,8.07067133 C156.386666,8.41472727 157.213653,6.95290909 161.429234,5.57584615 C165.235957,4.33388811 166.718971,5.14661538 166.718971,5.14661538" id="Fill-8" fill="#262626"></path>
                    <g id="Group-12" transform="translate(134.237148, 0.042671)" fill="#262626">
                        <path d="M34.584492,0.45986014 C30.2277875,0.13048951 26.5359794,1.76517483 22.9667477,3.34615385 L21.4216398,4.02713287 C17.7064454,5.67356643 12.6167017,7.92713287 7.94871763,7.77062937 C3.68354224,7.62797203 1.2376589,6.46657343 1.2376589,4.58769231 C1.2376589,2.9420979 2.75212277,1.98671329 5.73911646,1.74713287 C8.73941615,1.50713287 11.3437618,3.35832168 11.3691641,3.37636364 C11.5941563,3.53958042 11.9030167,3.48125874 12.0590597,3.24797203 C12.2146994,3.01426573 12.160669,2.69286713 11.93608,2.53006993 C11.8187454,2.4448951 9.02448696,0.449370629 5.6625062,0.718741259 C1.18564457,1.07706294 0.245757648,3.02013986 0.245757648,4.58769231 C0.245757648,6.06503497 1.24249744,8.5779021 7.91646068,8.80153846 C12.803792,8.96643357 17.7701529,6.98811189 21.5708282,5.30475524 L23.1151297,4.6220979 C26.577107,3.09062937 30.3955236,1.1786014 34.5119138,1.48993007 C39.3790846,1.8579021 40.0032566,3.47706294 40.0032566,4.84573427 C40.0032566,5.24097902 39.8585035,5.58 39.5577075,5.88251748 C38.7585415,6.68979021 36.9400559,7.14923077 34.8119035,7.0820979 C32.2273153,7.00027972 30.2979464,6.22825175 30.2729472,6.21608392 C30.0261815,6.09230769 29.7294176,6.19972028 29.6096637,6.45608392 C29.4915226,6.71160839 29.5939384,7.02 29.8411073,7.14461538 C29.9499745,7.19958042 31.9801464,8.02531469 34.7812594,8.11300699 C37.2045629,8.19020979 39.2488471,7.63300699 40.2492159,6.6234965 C40.7443601,6.12251748 40.9947546,5.52503497 40.9947546,4.84573427 C40.9947546,2.18475524 38.959341,0.791748252 34.584492,0.45986014" id="Fill-10"></path>
                    </g>
                    <path d="M0.61328125,5.08203125 L106.206529,5.08203125" id="Path-8" stroke="#262626"></path>
                    <path d="M205.613281,5.18 L307.983235,5.08224448" id="Path-8" stroke="#262626"></path>
                </g>
            </g>
        </g>
    </g>
</svg>