<?xml version="1.0" encoding="UTF-8" standalone="no"?>
<svg width="66px" height="68px" viewBox="0 0 66 68" version="1.1" xmlns="http://www.w3.org/2000/svg" xmlns:xlink="http://www.w3.org/1999/xlink">
    <!-- Generator: Sketch 41 (35326) - http://www.bohemiancoding.com/sketch -->
    <title>Group 16</title>
    <desc>Created with Sketch.</desc>
    <defs>
        <path d="M65.5409909,33.2977528 L65.5409909,0.0258426966 L56.9739728,0.992521981 L56.9739728,6.75527842 L47.0031238,7.84722069 L47.0031238,2.08577043 L37.9678923,3.06324675 L37.9678923,8.81698204 L33,9.34020386 L28,8.81698204 L28,3.06324675 L18.9872195,2.08577043 L18.9872195,7.84722069 L9.02284013,6.75527842 L9.02284013,0.992521981 L0.0304344166,0.0258426966 L0.00424067153,33.2977528 C-0.231503034,48.3898876 9.38160142,57.2494382 23.8667425,64.3303371 C26.9052169,65.8033708 29.6555601,66.7853933 32.7726158,67.5348315 C35.8634777,66.7595506 38.613821,65.7775281 41.6522954,64.3044944 C56.1374364,57.2494382 65.7505409,48.3640449 65.5409909,33.2977528 Z" id="path-1"></path>
        <rect id="path-3" x="28" y="7" width="5" height="1"></rect>
        <mask id="mask-4" maskContentUnits="userSpaceOnUse" maskUnits="objectBoundingBox" x="0" y="0" width="5" height="1" fill="white">
            <use xlink:href="#path-3"></use>
        </mask>
    </defs>
    <g id="Logo" stroke="none" stroke-width="1" fill="none" fill-rule="evenodd">
        <g id="Logo-Variation-#1" transform="translate(-951.000000, -148.000000)">
            <g id="Group-9" transform="translate(951.000000, 148.000000)">
                <g id="Group-16">
                    <g id="1478675375_medieval-mediaeval-times_19">
                        <g id="Group">
                            <mask id="mask-2" fill="white">
                                <use xlink:href="#path-1"></use>
                            </mask>
                            <use id="Shape" fill="#F5C983" xlink:href="#path-1"></use>
                            <g id="Rectangle-2" mask="url(#mask-2)" stroke-width="2" stroke="#979797" fill="#D8D8D8">
                                <use mask="url(#mask-4)" xlink:href="#path-3"></use>
                            </g>
                            <path d="M35.9181127,22 L42.1688649,43.4855305 L47.1036694,24.1736334 L44.8007606,23.6720257 L44.8007606,22 L48.9953444,22.1254019 L53.2721749,22 L53.2721749,23.6302251 L51.5861167,24.1736334 C50.8733081,26.0964726 49.9960183,28.5766193 48.954221,31.6141479 C48.0769181,34.1500663 47.5697349,35.640941 47.4326563,36.0868167 L43.8137998,48 L41.1407807,47.8745981 L38.4266383,48 L32.95723,29.8585209 L27.6523153,48 L24.9792962,47.8745981 L22.3062772,48 C20.962907,43.6248441 19.701803,39.6398894 18.5229271,36.0450161 C17.5359613,33.0353547 16.7272098,30.5830749 16.0966483,28.6881029 C15.7950754,27.7963514 15.2604769,26.2915433 14.4928369,24.1736334 L12.2721749,23.6720257 L12.2721749,22 L17.7415831,22.1254019 L23.2109913,22 L23.2109913,23.6302251 L21.0314527,24.1736334 C21.387857,25.6505969 21.7716713,27.2320387 22.1829071,28.9180064 C22.5941428,30.6039741 23.0190801,32.2272162 23.4577315,33.7877814 C24.3898659,37.2433185 25.3082787,40.434069 26.2129973,43.3601286 C27.1451317,39.7373881 28.1046674,36.184369 29.0916333,32.7009646 C29.9963519,29.4404982 30.9147647,25.8735456 31.846899,22 L35.9181127,22 Z" id="w" fill="#161616" mask="url(#mask-2)"></path>
                        </g>
                    </g>
                </g>
            </g>
        </g>
    </g>
</svg>