<?xml version="1.0" encoding="UTF-8" standalone="no"?>
<svg width="167px" height="19px" viewBox="0 0 167 19" version="1.1" xmlns="http://www.w3.org/2000/svg" xmlns:xlink="http://www.w3.org/1999/xlink">
    <!-- Generator: Sketch 41 (35326) - http://www.bohemiancoding.com/sketch -->
    <title>WrittenRealms</title>
    <desc>Created with Sketch.</desc>
    <defs></defs>
    <g id="App-(lobby-+-world-editor)" stroke="none" stroke-width="1" fill="none" fill-rule="evenodd">
        <g id="Visual-style---World-detail" transform="translate(-178.000000, -27.000000)" fill="#FFFFFF">
            <g id="Header">
                <g id="Group-9" transform="translate(145.000000, 23.000000)">
                    <path d="M53.616034,7.26098373 L52.4310397,7.01329412 L52.4310397,6.16702128 L54.9440448,6.22894368 L57.3344642,6.16702128 L57.3344642,7.01329412 L55.9860225,7.26098373 C55.0870568,9.71037103 54.2425866,12.2491642 53.4525865,14.8774393 L51.3073383,22.5145357 L48.6308857,22.5145357 L45.5049526,9.96492866 C45.2325387,11.1483405 45.0554724,11.9258029 44.9737483,12.2973392 C44.674093,13.5908358 44.3472013,14.9049537 43.9930633,16.2397322 C43.7478909,17.2029744 43.4959119,18.2487645 43.2371187,19.3771339 C43.0328084,20.2853337 42.7944498,21.3311238 42.522036,22.5145357 L39.8251525,22.5145357 C39.1441179,19.8449787 38.4426628,17.2993054 37.7207662,14.8774393 C37.4074902,13.8041123 37.0397371,12.5587964 36.6174956,11.1414543 C36.1952542,9.72411223 35.7934498,8.43063497 35.4120704,7.26098373 L33.9410431,7.01329412 L33.9410431,6.16702128 L37.0669762,6.22894368 L40.0703237,6.16702128 L40.0703237,7.01329412 L38.7831748,7.26098373 C39.0419679,8.40311376 39.2735162,9.4007425 39.4778266,10.2538999 C39.5595508,10.5841543 39.8115298,11.5886633 40.2337712,13.2674568 C40.7513575,15.3590684 41.2893668,17.3680863 41.8478151,19.2945707 C42.4198842,17.1066349 42.9578934,14.9118516 43.461859,12.7101552 C43.7206522,11.6643494 43.9726312,10.5772781 44.2178036,9.44890864 C44.422114,8.52694825 44.6604725,7.42611654 44.9328864,6.14638048 L46.2404663,6.22894368 L47.4663224,6.16702128 C47.6842534,7.2541089 47.9123966,8.33430002 48.1507587,9.40762703 C48.3891208,10.4809541 48.6581255,11.5817858 48.9577807,12.7101552 C49.2574359,13.8385246 49.5502764,14.9531167 49.8363109,16.053965 C50.0814834,16.9896859 50.3538931,18.0905177 50.6535483,19.3564931 C51.0621691,17.6776996 51.3754403,16.4323837 51.5933714,15.6205081 C51.8794059,14.6022235 52.0905234,13.8385215 52.2267304,13.3293792 C52.4855235,12.3936582 52.7375025,11.3822691 52.982675,10.2951815 C53.1869853,9.37322109 53.3981029,8.36183195 53.616034,7.26098373 Z M60.6647067,17.5813842 C60.6647067,18.1455689 60.671517,18.6168625 60.6851376,18.9952791 C60.6987583,19.3736957 60.7396198,19.8277888 60.8077233,20.357572 C60.8758267,20.8873552 60.9234984,21.1797636 60.9507398,21.234806 L62.48306,21.5031364 L62.48306,22.3287685 L59.2754031,22.2668461 L56.3333484,22.3287685 L56.3333484,21.5031364 L57.6204973,21.234806 L57.7430829,20.099562 C57.7703243,19.7555469 57.7975653,19.3599355 57.8248067,18.9127159 C57.8520481,18.4654963 57.8656685,18.0217235 57.8656685,17.5813842 L57.8656685,14.3407785 C57.8656685,14.0518058 57.8588583,13.7525172 57.8452376,13.4429036 C57.8316169,13.1332901 57.8043759,12.8340014 57.7635139,12.5450288 L57.6409283,11.1001727 L56.129039,10.7905607 L56.129039,9.96492866 C56.4559356,9.96492866 56.7555864,9.94428807 57.0280002,9.90300626 C57.4230003,9.82044264 57.7158407,9.76540106 57.9065304,9.73787985 C58.3015305,9.66907684 58.6079914,9.61059515 58.8259225,9.56243304 C59.0438536,9.51427093 59.3366941,9.43514865 59.7044527,9.32506383 L60.4195355,9.32506383 L60.3378117,12.9165632 C60.7191911,11.7606726 61.3116823,10.8800072 62.1153031,10.2745407 C62.4966825,9.99932862 62.8814613,9.78604248 63.269651,9.63467584 C63.6578407,9.48330921 64.05624,9.40762703 64.4648607,9.40762703 C64.628309,9.40762703 64.7883497,9.42138743 64.9449877,9.44890864 C65.1016257,9.47642984 65.2684766,9.51427093 65.4455456,9.56243304 C65.6226146,9.61059515 65.7656297,9.68283723 65.8745953,9.77916145 L65.1595125,11.5955519 L64.7713247,12.9578448 C64.2264971,12.8339994 63.9472771,12.7101558 63.9336564,12.5863104 C63.9336564,12.4211832 63.9472769,12.2973396 63.9745183,12.214776 C63.9745183,11.8845215 63.9234414,11.6987562 63.8212862,11.6574743 C63.7191311,11.6161925 63.5795211,11.5955519 63.4024521,11.5955519 C62.6669347,11.5955519 62.0267718,12.0290044 61.4819441,12.8959224 C60.9371165,13.7628404 60.6647067,14.8292711 60.6647067,16.0952466 L60.6647067,17.5813842 Z M67.997646,5.77484606 C67.997646,5.32074617 68.1610918,4.92857487 68.4879884,4.5983204 C68.814885,4.26806593 69.2030689,4.10294118 69.6525517,4.10294118 C70.1020346,4.10294118 70.4902185,4.26806593 70.8171151,4.5983204 C71.1440117,4.92857487 71.3074575,5.32074617 71.3074575,5.77484606 C71.3074575,6.24270655 71.1440117,6.64175805 70.8171151,6.97201252 C70.4902185,7.30226698 70.1020346,7.46739174 69.6525517,7.46739174 C69.2030689,7.46739174 68.814885,7.30226698 68.4879884,6.97201252 C68.1610918,6.64175805 67.997646,6.24270655 67.997646,5.77484606 Z M71.0622863,17.5813842 C71.0622863,18.0630053 71.0690965,18.5136583 71.0827172,18.9333567 C71.0963379,19.3530551 71.1303891,19.8243487 71.1848719,20.3472516 C71.2393547,20.8701545 71.2802161,21.166003 71.3074575,21.234806 L72.5946065,21.5031364 L72.5946065,22.3287685 L69.6525517,22.2668461 L66.710497,22.3287685 L66.710497,21.5031364 L67.997646,21.234806 L68.1202316,20.099562 C68.147473,19.7555469 68.1747139,19.3599355 68.2019553,18.9127159 C68.2291967,18.4654963 68.2428172,18.0217235 68.2428172,17.5813842 L68.2428172,14.0311665 C68.2428172,13.4119393 68.2155762,12.8890443 68.1610935,12.4624656 C68.1610935,12.1597323 68.147473,11.8914046 68.1202316,11.6574743 C68.0929902,11.4235441 68.058939,11.2446589 68.0180769,11.1208135 L66.5061877,10.8318423 L66.5061877,9.98556946 L67.517519,9.87204506 C67.8239845,9.83764355 68.1066097,9.79292226 68.3654028,9.73787985 L70.2450489,9.32506383 L71.2870266,9.32506383 L71.1031482,11.1414543 L71.0622863,12.6482328 L71.0622863,17.5813842 Z M77.2341954,17.7465106 C77.2341954,18.7647952 77.3431593,19.4940963 77.5610904,19.9344355 C77.75178,20.3747748 78.1263435,20.5949412 78.6847918,20.5949412 C78.9572057,20.5949412 79.2568564,20.519259 79.583753,20.3678924 C79.8561668,20.2165257 80.1081458,20.0307604 80.3396976,19.8105907 L81.0956422,20.6568636 C80.9321939,20.9733574 80.5371998,21.3792891 79.9106479,21.8746708 C79.2840961,22.3700525 78.5009181,22.6177397 77.5610904,22.6177397 C76.6076419,22.6177397 75.8380844,22.3356515 75.2523947,21.7714668 C74.707567,21.1935215 74.4351572,20.4229393 74.4351572,19.4596971 L74.4351572,11.1208135 L72.8006824,11.1208135 L72.8006824,10.2745407 L74.4351572,9.75852065 L74.3330026,7.03393492 L77.3363501,6.41471089 L77.2341954,9.75852065 L80.5644379,9.63467584 L79.9106479,11.2033767 L77.2341954,11.1208135 L77.2341954,17.7465106 Z M85.6499742,17.7465106 C85.6499742,18.7647952 85.7589381,19.4940963 85.9768692,19.9344355 C86.1675589,20.3747748 86.5421223,20.5949412 87.1005707,20.5949412 C87.3729845,20.5949412 87.6726352,20.519259 87.9995318,20.3678924 C88.2719457,20.2165257 88.5239247,20.0307604 88.7554764,19.8105907 L89.511421,20.6568636 C89.3479727,20.9733574 88.9529786,21.3792891 88.3264268,21.8746708 C87.699875,22.3700525 86.9166969,22.6177397 85.9768692,22.6177397 C85.0234208,22.6177397 84.2538632,22.3356515 83.6681735,21.7714668 C83.1233458,21.1935215 82.8509361,20.4229393 82.8509361,19.4596971 L82.8509361,11.1208135 L81.2164612,11.1208135 L81.2164612,10.2745407 L82.8509361,9.75852065 L82.7487814,7.03393492 L85.7521289,6.41471089 L85.6499742,9.75852065 L88.9802167,9.63467584 L88.3264268,11.2033767 L85.6499742,11.1208135 L85.6499742,17.7465106 Z M101.747785,19.2945707 C101.46175,19.7073888 101.128048,20.0995601 100.746669,20.4710964 C100.36529,20.8426326 99.902193,21.2072832 99.3573654,21.5650588 C98.2813307,22.2668496 97.1372098,22.6177397 95.9249682,22.6177397 C93.9635886,22.6177397 92.4244735,22.0466832 91.3075768,20.9045532 C90.1906801,19.7624232 89.6322401,18.1799776 89.6322401,16.157169 C89.6322401,14.2994876 90.2928337,12.7101618 91.6140408,11.3891439 C92.9352479,10.0681261 94.528845,9.40762703 96.3948797,9.40762703 C97.9340179,9.40762703 99.1768874,9.87204041 100.123525,10.8008811 C101.070164,11.7297218 101.543475,12.916556 101.543475,14.3614193 L101.543475,15.0838473 L92.7786041,15.0838473 C92.7786041,16.8589651 93.0952805,18.2143641 93.7286426,19.1500851 C94.3620048,20.0858061 95.3597055,20.5536596 96.7217747,20.5536596 C97.6616024,20.5536596 98.4958573,20.2990922 99.2245643,19.7899499 C99.9532713,19.2808076 100.494686,18.8267146 100.848824,18.4276571 L101.747785,19.2945707 Z M92.8603279,13.8660401 L98.519697,13.5977096 L98.519697,13.3293792 C98.519697,12.5037431 98.3290102,11.8707648 97.9476308,11.4304255 C97.5662515,10.9900862 96.9873807,10.7699199 96.2110013,10.7699199 C95.1894494,10.7699199 94.3517894,11.155211 93.6979962,11.9258048 C93.3166169,12.4211865 93.0373969,13.0679251 92.8603279,13.8660401 Z M114.212422,17.5813842 C114.212422,18.0630053 114.219232,18.5136583 114.232853,18.9333567 C114.246474,19.3530551 114.280525,19.8243487 114.335008,20.3472516 C114.38949,20.8701545 114.430352,21.166003 114.457593,21.234806 L115.744742,21.5031364 L115.744742,22.3287685 L112.823118,22.2668461 L111.433815,22.3287685 L111.433815,21.5031364 L111.413384,21.234806 L111.413384,14.9806433 C111.413384,13.7834709 111.236318,12.8959253 110.88218,12.31798 C110.568904,11.7400347 109.983223,11.4510663 109.125119,11.4510663 C108.267016,11.4510663 107.572371,11.822597 107.041164,12.5656696 C106.564439,13.2949815 106.326081,14.2719697 106.326081,15.4966633 L106.326081,17.5813842 C106.326081,18.1455689 106.332891,18.6168625 106.346512,18.9952791 C106.360133,19.3736957 106.394184,19.7417863 106.448667,20.099562 L106.571252,21.234806 L107.858401,21.5031364 L107.858401,22.3287685 L104.936777,22.2668461 L101.994723,22.3287685 L101.994723,21.5031364 L103.281872,21.234806 L103.404457,20.099562 C103.431699,19.7555469 103.45894,19.3599355 103.486181,18.9127159 C103.513422,18.4654963 103.527043,18.0217235 103.527043,17.5813842 L103.527043,14.3407785 C103.527043,14.0518058 103.520233,13.7525172 103.506612,13.4429036 C103.492991,13.1332901 103.46575,12.8340014 103.424888,12.5450288 L103.302303,11.1001727 L101.790413,10.7905607 L101.790413,9.96492866 C102.144551,9.96492866 102.464633,9.94428807 102.750667,9.90300626 C103.172909,9.82044264 103.48618,9.76540106 103.69049,9.73787985 C104.262559,9.64155563 104.616692,9.57963385 104.752899,9.55211264 C104.889106,9.52459144 105.168326,9.44890926 105.590567,9.32506383 L106.428236,9.32506383 L106.326081,11.5955519 C106.939012,10.8524794 107.599606,10.3020635 108.307882,9.94428786 C109.016158,9.58651219 109.772095,9.40762703 110.575716,9.40762703 C111.678992,9.40762703 112.560918,9.75851714 113.221522,10.4603079 C113.882125,11.1620986 114.212422,12.0909254 114.212422,13.246816 L114.212422,17.5813842 Z M121.81273,14.8774393 L121.81273,18.0354819 L121.996608,21.234806 L123.488067,21.5031364 L123.488067,22.3287685 L120.321272,22.2668461 L117.154477,22.3287685 L117.154477,21.5031364 L118.625504,21.234806 L118.809383,18.0354819 L118.809383,10.4603079 L118.625504,7.26098373 L117.154477,7.01329412 L117.154477,6.16702128 L120.321272,6.22894368 L126.021503,6.10509887 C127.615124,6.10509887 128.864803,6.44566868 129.770579,7.12681852 C130.676355,7.80796836 131.129237,8.78151641 131.129237,10.0474919 C131.129237,11.0244947 130.81256,11.90516 130.179198,12.6895144 C129.545836,13.4738688 128.330207,14.072446 126.532276,14.4852641 L132.2938,21.234806 L133.213192,21.5031364 L133.233623,22.3287685 L132.252938,22.3287685 C131.939662,22.3287685 131.58553,22.3494091 131.190529,22.3906909 C130.904495,22.3906909 130.587819,22.4147716 130.240491,22.4629337 C129.893163,22.5110958 129.528815,22.5764577 129.147436,22.6590213 C127.540194,20.3610006 126.430125,18.812956 125.817193,18.0148411 L123.447205,14.8774393 L121.81273,14.8774393 Z M121.833161,13.2261752 L123.590221,13.3913016 C124.816084,13.3913016 125.83081,13.092013 126.634431,12.4934268 C127.438052,11.8948406 127.839856,11.1483391 127.839856,10.2538999 C127.839856,9.42826371 127.509559,8.77808498 126.848956,8.30334418 C126.188352,7.82860338 125.292805,7.59123655 124.162288,7.59123655 C123.971598,7.59123655 123.774101,7.59811674 123.569791,7.61187735 C123.36548,7.62563795 123.154363,7.65315874 122.936432,7.69444055 C122.486949,7.73572236 122.119196,7.81140454 121.833161,7.92148936 L121.833161,13.2261752 Z M144.611887,19.2945707 C144.325853,19.7073888 143.992151,20.0995601 143.610772,20.4710964 C143.229392,20.8426326 142.766296,21.2072832 142.221468,21.5650588 C141.145433,22.2668496 140.001312,22.6177397 138.789071,22.6177397 C136.827691,22.6177397 135.288576,22.0466832 134.171679,20.9045532 C133.054783,19.7624232 132.496343,18.1799776 132.496343,16.157169 C132.496343,14.2994876 133.156936,12.7101618 134.478143,11.3891439 C135.799351,10.0681261 137.392948,9.40762703 139.258982,9.40762703 C140.798121,9.40762703 142.04099,9.87204041 142.987628,10.8008811 C143.934266,11.7297218 144.407578,12.916556 144.407578,14.3614193 L144.407578,15.0838473 L135.642707,15.0838473 C135.642707,16.8589651 135.959383,18.2143641 136.592745,19.1500851 C137.226107,20.0858061 138.223808,20.5536596 139.585877,20.5536596 C140.525705,20.5536596 141.35996,20.2990922 142.088667,19.7899499 C142.817374,19.2808076 143.358788,18.8267146 143.712926,18.4276571 L144.611887,19.2945707 Z M135.724431,13.8660401 L141.3838,13.5977096 L141.3838,13.3293792 C141.3838,12.5037431 141.193113,11.8707648 140.811733,11.4304255 C140.430354,10.9900862 139.851483,10.7699199 139.075104,10.7699199 C138.053552,10.7699199 137.215892,11.155211 136.562099,11.9258048 C136.18072,12.4211865 135.9015,13.0679251 135.724431,13.8660401 Z M154.829122,15.7443529 L153.991453,15.7443529 C153.255936,15.7443529 152.585127,15.8303554 151.979006,16.002363 C151.372886,16.1743705 150.851902,16.4186175 150.41604,16.7351114 C149.557936,17.2717749 149.128891,17.9873155 149.128891,18.8817547 C149.128891,19.2945728 149.326388,19.6764238 149.721388,20.0273191 C150.116388,20.3782145 150.640777,20.5536596 151.29457,20.5536596 C152.384225,20.5536596 153.245721,20.0892462 153.879083,19.1604055 C154.512445,18.2315648 154.829122,17.092892 154.829122,15.7443529 Z M154.663908,19.5009787 C153.873908,20.877039 153.056678,21.743944 152.212195,22.1017196 C151.367713,22.4594953 150.509622,22.6383805 149.637898,22.6383805 C148.466518,22.6383805 147.516489,22.3046909 146.787782,21.6373016 C146.059075,20.9699124 145.694727,20.1683693 145.694727,19.2326483 C145.694727,17.718982 146.460879,16.5321478 147.993207,15.6721101 C149.525535,14.8120725 151.653736,14.3820601 154.377875,14.3820601 L154.377875,13.1023304 C154.377875,12.2904548 154.176972,11.7469192 153.775162,11.4717071 C153.373352,11.1964951 152.716163,11.0588911 151.803577,11.0588911 C150.87737,11.0588911 150.114622,11.1689743 149.515312,11.3891439 C149.174795,11.5129894 148.895575,11.6230725 148.677644,11.7193967 C148.636782,11.7331573 148.58911,11.7537979 148.534627,11.7813191 L148.534627,12.9784856 L147.71739,13.246816 L146.511964,10.5015895 L148.187301,9.96492866 C149.290577,9.59339239 150.686677,9.40762703 152.375643,9.40762703 C154.990816,9.40762703 156.485664,10.1919696 156.860233,11.7606783 C157.234802,13.3293871 157.422084,16.2190703 157.422084,20.4298148 L157.422084,20.82199 L158.668371,21.4618548 L158.668371,22.3287685 L156.952173,22.3081277 L156.23709,22.2874869 L154.888648,22.3494093 C154.861407,22.2806062 154.834166,22.1877236 154.806924,22.0707584 C154.779683,21.9537933 154.766062,21.7714681 154.766062,21.5237772 C154.766062,21.2485652 154.759252,20.9423963 154.745631,20.6052616 C154.732011,20.2681268 154.70477,19.9000362 154.663908,19.5009787 Z M159.52647,5.65100125 L159.52647,4.80472841 L163.244901,4.18550438 L164.307309,4.18550438 L164.123431,6.00189487 L164.082569,7.50867334 L164.082569,17.5813842 C164.082569,18.0630053 164.089379,18.5136583 164.103,18.9333567 C164.116621,19.3530551 164.150672,19.8243487 164.205155,20.3472516 C164.259637,20.8701545 164.300499,21.166003 164.32774,21.234806 L165.614889,21.5031364 L165.614889,22.3287685 L162.672834,22.2668461 L159.73078,22.3287685 L159.73078,21.5031364 L160.997498,21.234806 C161.024739,21.2072848 161.055385,21.0903214 161.089437,20.8839124 C161.123489,20.6775033 161.140514,20.4160558 161.140514,20.099562 C161.167756,19.7555469 161.194997,19.3599355 161.222238,18.9127159 C161.249479,18.4654963 161.2631,18.0217235 161.2631,17.5813842 L161.2631,9.75852065 C161.2631,9.42826618 161.252885,9.05673548 161.232454,8.6439174 C161.212022,8.23109931 161.194997,7.77700623 161.181376,7.28162453 C161.181376,6.97889127 161.167756,6.71056354 161.140514,6.47663329 C161.113273,6.24270304 161.079222,6.06381789 161.03836,5.93997247 L159.52647,5.65100125 Z M186.515736,17.5813842 C186.515736,18.1455689 186.522546,18.6168625 186.536167,18.9952791 C186.549788,19.3736957 186.583839,19.7417863 186.638322,20.099562 L186.760907,21.234806 L188.048056,21.5031364 L188.048056,22.3287685 L185.126433,22.2668461 L183.716698,22.3287685 L183.716698,14.9806433 C183.716698,13.8109921 183.560062,12.9234465 183.246787,12.31798 C182.906269,11.7400347 182.334209,11.4510663 181.530588,11.4510663 C180.726967,11.4510663 180.066373,11.822597 179.548787,12.5656696 C179.085684,13.3087421 178.854135,14.2857303 178.854135,15.4966633 L178.854135,17.5813842 C178.854135,18.1455689 178.860946,18.6168625 178.874566,18.9952791 C178.888187,19.3736957 178.922238,19.7417863 178.976721,20.099562 L179.099307,21.234806 L180.386456,21.5031364 L180.386456,22.3287685 L177.464832,22.2668461 L174.543208,22.3287685 L174.543208,21.5031364 L175.830357,21.234806 L175.932512,20.099562 C176.014236,19.4115318 176.055097,18.5721476 176.055097,17.5813842 L176.055097,14.9806433 C176.055097,13.8109921 175.898462,12.9234465 175.585186,12.31798 C175.244668,11.7400347 174.672608,11.4510663 173.868987,11.4510663 C173.024504,11.4510663 172.367316,11.822597 171.897402,12.5656696 C171.427488,13.3087421 171.192535,14.2857303 171.192535,15.4966633 L171.192535,17.5813842 C171.192535,18.0630053 171.199345,18.5136583 171.212966,18.9333567 C171.226586,19.3530551 171.260637,19.8243487 171.31512,20.3472516 C171.369603,20.8701545 171.410464,21.166003 171.437706,21.234806 L172.724855,21.5031364 L172.724855,22.3287685 L169.803231,22.2668461 L166.861176,22.3287685 L166.861176,21.5031364 L168.148325,21.234806 L168.270911,20.099562 C168.298152,19.7555469 168.325393,19.3599355 168.352635,18.9127159 C168.379876,18.4654963 168.393496,18.0217235 168.393496,17.5813842 L168.393496,14.3407785 C168.393496,14.0518058 168.386686,13.7525172 168.373065,13.4429036 C168.359445,13.1332901 168.332204,12.8340014 168.291342,12.5450288 L168.168756,11.1001727 L166.656867,10.7905607 L166.656867,9.96492866 C166.997384,9.96492866 167.310655,9.94428807 167.59669,9.90300626 C168.018931,9.82044264 168.332203,9.76540106 168.536513,9.73787985 C168.985996,9.66907684 169.319698,9.61059515 169.537629,9.56243304 C169.75556,9.51427093 170.062021,9.43514865 170.457021,9.32506383 L171.294689,9.32506383 L171.192535,11.5955519 C171.805466,10.8524794 172.445629,10.3020635 173.113043,9.94428786 C173.780456,9.58651219 174.509152,9.40762703 175.299153,9.40762703 C176.157256,9.40762703 176.868927,9.62435328 177.434185,10.0578123 C177.999444,10.4912713 178.397843,11.0588876 178.629395,11.7606783 C178.820085,11.4717057 179.038013,11.203378 179.283185,10.9556871 C179.528357,10.7079963 179.841629,10.4465487 180.223008,10.1713367 C180.904043,9.66219437 181.823426,9.40762703 182.981184,9.40762703 C184.043598,9.40762703 184.898284,9.75851714 185.545267,10.4603079 C186.19225,11.1620986 186.515736,12.0909254 186.515736,13.246816 L186.515736,17.5813842 Z M199.673171,18.3863755 C199.673171,19.5147449 199.097705,20.5054934 197.946757,21.3586508 C196.795808,22.2118082 195.409924,22.6383805 193.789061,22.6383805 C192.726647,22.6383805 191.756188,22.5110968 190.877653,22.2565257 C189.999118,22.0019545 189.158053,21.6269837 188.354433,21.131602 C188.50426,20.9527142 188.677921,20.7359879 188.875421,20.4814168 C189.072921,20.2268456 189.246583,19.996359 189.39641,19.7899499 C189.546238,19.5835409 189.702873,19.3496142 189.866322,19.0881627 C189.975287,18.9092749 190.104682,18.6753481 190.25451,18.3863755 L191.010454,18.7785507 L190.724421,19.9550763 C190.969594,20.175246 191.391829,20.4091727 191.991139,20.6568636 C192.563208,20.8632726 193.291904,20.9664756 194.177249,20.9664756 C194.940008,20.9664756 195.580171,20.8047909 196.097757,20.4814168 C196.615343,20.1580426 196.874133,19.6936292 196.874133,19.0881627 C196.874133,18.4964568 196.560861,18.0561241 195.93431,17.7671514 C195.634654,17.6295454 195.266901,17.4816212 194.831039,17.3233742 C194.395177,17.1651273 193.91846,17.0034426 193.400874,16.8383154 C192.311218,16.5631033 191.340759,16.1606117 190.489465,15.6308285 C189.638172,15.1010453 189.212532,14.2788616 189.212532,13.1642528 C189.212532,12.1046864 189.764162,11.2137007 190.867438,10.4912691 C191.970714,9.76883744 193.251039,9.40762703 194.708453,9.40762703 C195.539316,9.40762703 196.370165,9.48330921 197.201028,9.63467584 C197.555166,9.70347886 197.885462,9.77572094 198.191928,9.85140426 C198.498394,9.92708757 198.787829,10.01309 199.060243,10.1094143 L198.059127,12.8959224 L197.221459,12.7514368 L197.221459,11.7606783 C196.880941,11.5680299 196.417845,11.3788245 195.832155,11.1930563 C195.246465,11.0072882 194.701646,10.9144055 194.19768,10.9144055 C193.434921,10.9144055 192.856051,11.0726501 192.461051,11.3891439 C192.066051,11.6781166 191.868553,12.0771681 191.868553,12.5863104 C191.868553,12.9716073 192.100102,13.3293776 192.563205,13.659632 C193.026309,13.9623653 193.836728,14.2513336 194.994487,14.5265457 C196.737935,14.9118426 197.953564,15.4106569 198.641409,16.0230038 C199.329254,16.6353506 199.673171,17.4231333 199.673171,18.3863755 Z" id="WrittenRealms"></path>
                </g>
            </g>
        </g>
    </g>
</svg>